# AST/ASF file generated using VICON BodyLanguage
# -----------------------------------------------
:version 1.10
:name VICON
:units
  mass 1.0
  length 0.45
  angle deg
:documentation
   .ast/.asf automatically generated from VICON data using
   VICON BodyBuilder and BodyLanguage model FoxedUp or BRILLIANT.MOD
:root
   order TX TY TZ RX RY RZ
   axis XYZ
   position 0 0 0  
   orientation 0 0 0 
:bonedata
  begin
     id 1 
     name lhipjoint
     direction 0.588788 -0.725889 0.355548 
     length 2.37778 
     axis 0 0 0  XYZ
  end
  begin
     id 2 
     name lfemur
     direction 0.34202 -0.939693 0  
     length 6.86393  
     axis 0 0 20  XYZ
    dof rx ry rz
    limits (-160.0 20.0)
           (-70.0 70.0)
           (-60.0 70.0)
  end
  begin
     id 3 
     name ltibia
     direction 0.34202 -0.939693 0   
     length 7.32851   
     axis 0 0 20   XYZ
    dof rx
    limits (-10.0 170.0)
  end
  begin
     id 4 
     name lfoot
     direction 0.0626533 -0.172138 0.983078   
     length 1.98929   
     axis -90 7.62852e-016 20   XYZ
    dof rx rz
    limits (-45.0 90.0)
           (-70.0 20.0)
  end
  begin
     id 5 
     name ltoes
     direction 1.53647e-011 -4.21734e-011 1   
     length 1.00479   
     axis -90 7.62852e-016 20   XYZ
    dof rx
    limits (-90.0 20.0)
  end
  begin
     id 6 
     name rhipjoint
     direction -0.59141 -0.724168 0.354705   
     length 2.38343  
     axis 0 0 0  XYZ 
  end
  begin
     id 7 
     name rfemur
     direction -0.34202 -0.939693 0   
     length 6.95589   
     axis 0 0 -20   XYZ
    dof rx ry rz
    limits (-160.0 20.0)
           (-70.0 70.0)
           (-70.0 60.0)
  end
  begin
     id 8 
     name rtibia
     direction -0.34202 -0.939693 0   
     length 7.32327   
     axis 0 0 -20   XYZ
    dof rx
    limits (-10.0 170.0)
 end
 begin
     id 9 
     name rfoot
     direction -0.0660461 -0.18146 0.981178   
     length 1.85272  
     axis -90 -7.62852e-016 -20   XYZ
    dof rx rz
    limits (-45.0 90.0)
           (-20.0 70.0)
  end
  begin
     id 10 
     name rtoes
     direction -1.53586e-011 -4.21988e-011 1   
     length 0.93746   
     axis -90 -7.62852e-016 -20   XYZ
    dof rx
    limits (-90.0 20.0)
  end
  begin
     id 11 
     name lowerback
     direction -0.0107982 0.991059 0.13299   
     length 1.98691   
     axis 0 0 0   XYZ
    dof rx ry rz
    limits (-20.0 45.0)
           (-30.0 30.0)
           (-30.0 30.0)
  end
  begin
     id 12 
     name upperback
     direction 0.0076296 0.999916 0.0104576   
     length 1.99501   
     axis 0 0 0   XYZ
    dof rx ry rz
    limits (-20.0 45.0)
           (-30.0 30.0)
           (-30.0 30.0)
  end
  begin
     id 13 
     name thorax
     direction 0.01176 0.998615 -0.0512909   
     length 2.03144   
     axis 0 0 0   XYZ
    dof rx ry rz
    limits (-20.0 45.0)
           (-30.0 30.0)
           (-30.0 30.0)
  end
  begin
     id 14 
     name lowerneck
     direction -0.0171909 0.999644 0.0204011   
     length 1.71818   
     axis 0 0 0   XYZ
    dof rx ry rz
    limits (-20.0 45.0)
           (-30.0 30.0)
           (-30.0 30.0)
  end
  begin
     id 15 
     name upperneck
     direction 0.0250902 0.997482 -0.0663316   
     length 1.66199   
     axis 0 0 0   XYZ
    dof rx ry rz
    limits (-20.0 45.0)
           (-30.0 30.0)
           (-30.0 30.0)
  end
  begin
     id 16
     name head
     direction 0.00881535 0.99956 -0.0283365  
     length 1.81545  
     axis 0 0 0   XYZ
    dof rx ry rz
    limits (-20.0 45.0)
           (-30.0 30.0)
           (-30.0 30.0)
  end
  begin
     id 17 
     name lclavicle
     direction 0.840411 0.486876 -0.238035  
     length 3.30409  
     axis 0 0 0   XYZ
    dof ry rz
    limits (-20.0 10.0)
           (0.0 20.0)
  end
  begin
     id 18 
     name lhumerus
     direction 1 -4.48977e-011 -5.16239e-027   
     length 4.62672   
     axis 180 -30 -90   XYZ
    dof rx ry rz
    limits (-60.0 90.0)
           (-90.0 90.0)
           (-90.0 90.0)
  end
  begin
     id 19
     name lradius
     direction 1 -4.48977e-011 -8.71171e-027   
     length 3.11018   
     axis 180 -30 -90   XYZ
    dof rx
    limits (-10.0 170.0)
  end
  begin
     id 20
     name lwrist
     direction 1 -4.48912e-011 -1.03764e-026   
     length 1.55509   
     axis 9.09556e-015 90 90   XYZ
    dof ry
    limits (-180.0 0.0)
 end
  begin
     id 21 
     name lhand
     direction 1 -4.49072e-011 -2.07528e-026   
     length 0.743834   
     axis 1.3242e-014 90 90   XYZ
    dof rx rz
    limits (-90.0 90.0)
           (-45.0 45.0)
  end
  begin
     id 22 
     name lfingers
     direction 1 -4.48909e-011 -4.15056e-026   
     length 0.599698   
     axis 2.64841e-014 90 90   XYZ
    dof rx
    limits (0.0 90.0)
  end
  begin
     id 23
     name lthumb
     direction 0.707107 -6.35013e-011 0.707107   
     length 0.86105   
     axis -90 45 2.85299e-015   XYZ
    dof rx rz
    limits (-45.0 45.0)
           (-45.0 45.0)
  end
  begin
     id 24 
     name rclavicle
     direction -0.835208 0.500237 -0.228452   
     length 3.2716  
     axis 0 0 0   XYZ 
    dof ry rz
    limits (-10.0 20.0)
           (-20.0 0.0)
  end
  begin
     id 25 
     name rhumerus
     direction -1 -4.48978e-011 -5.1953e-028  
     length 4.55919   
     axis 180 30 90   XYZ
    dof rx ry rz
    limits (-90.0 60.0)
           (-90.0 90.0)
           (-90.0 90.0)
  end
  begin
     id 26 
     name rradius
     direction -1 -4.48961e-011 -5.99546e-027   
     length 3.22748   
     axis 180 30 90   XYZ
    dof rx
    limits (-10.0 170.0)
  end
  begin
     id 27 
     name rwrist
     direction -1 -4.48986e-011 -1.03764e-026   
     length 1.61374   
     axis 9.09556e-015 -90 -90   XYZ
    dof ry
    limits (-180.0 0.0)
  end
  begin
     id 28
     name rhand
     direction -1 -4.4899e-011 -2.07528e-026   
     length 0.700882   
     axis 1.3242e-014 -90 -90   XYZ
    dof rx rz
    limits (-90.0 90.0)
           (-45.0 45.0)
  end
  begin
     id 29
     name rfingers
     direction -1 -4.48991e-011 -4.15056e-026   
     length 0.565069   
     axis 2.64841e-014 -90 -90   XYZ
    dof rx
    limits (0.0 90.0)
  end
  begin
     id 30
     name rthumb
     direction -0.707107 -6.34804e-011 0.707107   
     length 0.811329   
     axis -90 -45 -2.85299e-015   XYZ
    dof rx rz
    limits (-45.0 45.0)
           (-45.0 45.0)
  end
:hierarchy
  begin
    root lhipjoint rhipjoint lowerback
    lhipjoint lfemur
    lfemur ltibia
    ltibia lfoot
    lfoot ltoes
    rhipjoint rfemur
    rfemur rtibia
    rtibia rfoot
    rfoot rtoes
    lowerback upperback
    upperback thorax
    thorax lowerneck lclavicle rclavicle
    lowerneck upperneck
    upperneck head
    lclavicle lhumerus
    lhumerus lradius
    lradius lwrist
    lwrist lhand lthumb
    lhand lfingers
    rclavicle rhumerus
    rhumerus rradius
    rradius rwrist
    rwrist rhand rthumb
    rhand rfingers
  end

#!OML:ASF F:\VICON\USERDATA\INSTALL\SteveWalk\SteveWalk.ASF
:FULLY-SPECIFIED
:DEGREES
79
root -0.193299 16.4826 -25.6424 17.0916 4.28201 -0.136074
lowerback -14.4544 -0.678226 0.136502
upperback -5.14719 -0.990317 2.25566
thorax 2.70628 -0.474771 2.11976
lowerneck -4.20716 -1.16449 0.124712
upperneck 9.72069 -1.25463 -3.27625
head 3.89325 -0.759901 -1.16881
rclavicle -1.9279e-014 6.36111e-015
rhumerus -33.3074 -14.1336 -80.2832
rradius 28.4257
rwrist -5.48098
rhand -15.827 -36.5794
rfingers 7.12502
rthumb 10.367 -66.3039
lclavicle -1.9279e-014 6.36111e-015
lhumerus -39.1536 6.85314 85.0369
lradius 21.8873
lwrist -5.79159
lhand -19.6081 -17.5834
lfingers 7.12502
lthumb 6.71818 12.29
rfemur -27.7503 -3.01814 24.7389
rtibia 34.9092
rfoot -24.7111 5.01684
rtoes -10.3413
lfemur -44.0111 2.95972 -20.3693
ltibia 64.8978
lfoot -7.76668 6.10589
ltoes -1.91887
80
root -0.194233 16.4693 -25.4477 17.5127 4.26526 -0.103509
lowerback -14.7802 -0.640109 0.029989
upperback -5.20003 -0.925584 2.19993
thorax 2.82362 -0.442186 2.13086
lowerneck -4.1872 -1.14605 0.0869947
upperneck 9.54267 -1.23429 -3.24646
head 3.82691 -0.74814 -1.14828
rclavicle -2.97059e-014 1.03368e-014
rhumerus -31.8042 -12.4258 -81.3879
rradius 29.6346
rwrist -6.89972
rhand -15.462 -36.3396
rfingers 7.12502
rthumb 10.7191 -66.0462
lclavicle -2.97059e-014 1.03368e-014
lhumerus -39.9454 7.56112 84.4893
lradius 21.2453
lwrist -7.34966
lhand -18.9775 -17.7728
lfingers 7.12502
lthumb 7.32688 12.0804
rfemur -27.4016 -3.72697 24.8978
rtibia 34.7731
rfoot -25.374 5.65667
rtoes -9.02808
lfemur -45.4829 2.84787 -20.5916
ltibia 62.9995
lfoot -9.40918 6.67541
ltoes -6.67519
81
root -0.173083 16.4693 -25.2148 17.4038 3.70815 -0.216666
lowerback -14.9464 -0.330817 0.268311
upperback -5.18751 -0.547651 2.03899
thorax 2.90786 -0.256987 1.89088
lowerneck -3.85387 -1.13811 0.240419
upperneck 9.5063 -1.23515 -3.28497
head 3.74785 -0.741759 -1.18339
rclavicle 1.03865e-014 -1.27222e-014
rhumerus -30.5009 -10.8156 -82.2869
rradius 30.4552
rwrist -8.36617
rhand -14.7571 -37.4421
rfingers 7.12502
rthumb 11.3991 -67.1122
lclavicle 1.03865e-014 -1.27222e-014
lhumerus -41.0565 8.25367 83.7696
lradius 20.494
lwrist -9.01889
lhand -18.7491 -18.225
lfingers 7.12502
lthumb 7.5473 11.6204
rfemur -26.2736 -4.61339 24.9905
rtibia 34.4828
rfoot -26.1609 7.1956
rtoes -6.5038
lfemur -45.9117 3.12955 -20.8106
ltibia 60.8037
lfoot -8.07382 7.81065
ltoes 0.199985
82
root -0.165399 16.4606 -24.9987 17.2569 3.60635 -0.140748
lowerback -14.8494 -0.25847 0.21061
upperback -5.0904 -0.439381 1.90661
thorax 2.95418 -0.204339 1.80308
lowerneck -4.01171 -1.12944 0.411826
upperneck 9.56735 -1.22729 -3.35423
head 3.7997 -0.736289 -1.23957
rclavicle -9.71249e-015 1.51076e-014
rhumerus -29.0671 -8.93313 -83.2775
rradius 31.6745
rwrist -10.1203
rhand -14.0772 -39.0444
rfingers 7.12502
rthumb 12.0547 -68.6772
lclavicle -9.71249e-015 1.51076e-014
lhumerus -41.8096 8.87294 83.1479
lradius 19.7076
lwrist -10.1773
lhand -18.6837 -18.0708
lfingers 7.12502
lthumb 7.61041 11.7723
rfemur -25.1022 -5.34933 24.952
rtibia 34.1336
rfoot -26.5107 8.07091
rtoes -4.40834
lfemur -46.2902 3.02782 -21.0076
ltibia 58.3865
lfoot -8.90843 8.39096
ltoes 1.54497
83
root -0.161269 16.454 -24.7901 17.2489 3.38165 -0.139151
lowerback -14.7534 -0.206633 0.165706
upperback -4.90929 -0.366584 1.88674
thorax 3.09111 -0.169627 1.82012
lowerneck -4.64571 -1.12843 0.267565
upperneck 9.67722 -1.2098 -3.33046
head 3.96479 -0.737634 -1.21547
rclavicle 2.2239e-015 -1.90833e-014
rhumerus -27.5843 -6.81277 -84.1674
rradius 33.2915
rwrist -12.0427
rhand -14.4337 -38.5922
rfingers 7.12502
rthumb 11.7109 -68.2448
lclavicle 2.2239e-015 -1.90833e-014
lhumerus -42.417 9.43675 82.7831
lradius 19.2904
lwrist -10.8897
lhand -18.4111 -17.48
lfingers 7.12502
lthumb 7.87361 12.3534
rfemur -24.0621 -5.90659 24.9564
rtibia 33.694
rfoot -26.6716 8.98524
rtoes -2.70313
lfemur -46.7361 3.01031 -21.1003
ltibia 55.7186
lfoot -10.3895 8.44107
ltoes 4.5037
84
root -0.151399 16.4512 -24.5788 17.3857 3.07792 -0.161291
lowerback -14.8155 0.0360897 0.239838
upperback -5.14867 -0.045202 1.69565
thorax 2.8627 -0.00947718 1.63207
lowerneck -3.83042 -1.22215 0.422217
upperneck 9.55075 -1.3594 -3.29633
head 3.75535 -0.797188 -1.22509
rclavicle 1.09021e-015 7.55382e-015
rhumerus -27.2817 -5.13223 -84.7751
rradius 35.083
rwrist -13.973
rhand -14.7686 -37.611
rfingers 7.12502
rthumb 11.3879 -67.2818
lclavicle 1.09021e-015 7.55382e-015
lhumerus -43.9873 9.05944 82.437
lradius 19.2192
lwrist -11.328
lhand -18.1476 -17.3154
lfingers 7.12502
lthumb 8.12789 12.5083
rfemur -23.1515 -6.55705 24.9379
rtibia 33.2756
rfoot -26.9599 9.99844
rtoes -1.62586
lfemur -47.2227 3.01851 -21.2182
ltibia 52.8351
lfoot -11.2503 8.68708
ltoes 6.17768
85
root -0.142564 16.4457 -24.3699 17.4668 2.74242 -0.0332844
lowerback -14.7892 0.169274 0.131472
upperback -5.14089 0.151391 1.55308
thorax 2.85167 0.087763 1.57703
lowerneck -3.95975 -1.1563 0.496194
upperneck 9.53838 -1.27651 -3.29082
head 3.7779 -0.754094 -1.23437
rclavicle -2.37299e-015 -5.96354e-015
rhumerus -26.3663 -3.30042 -85.2918
rradius 36.7493
rwrist -15.3782
rhand -14.2584 -37.2284
rfingers 7.12502
rthumb 11.88 -66.8713
lclavicle -2.37299e-015 -5.96354e-015
lhumerus -44.9113 9.58821 81.7303
lradius 18.687
lwrist -12.4027
lhand -18.1286 -17.8328
lfingers 7.12502
lthumb 8.14622 11.9902
rfemur -22.1746 -7.03196 24.6995
rtibia 32.8105
rfoot -27.1207 10.8613
rtoes -0.861112
lfemur -47.5713 2.98296 -21.474
ltibia 49.7461
lfoot -11.7915 8.86801
ltoes 5.52149
